<?xml version="1.0" encoding="UTF-8"?>
<svg width="145px" height="238px" viewBox="0 0 145 238" version="1.1" xmlns="http://www.w3.org/2000/svg" xmlns:xlink="http://www.w3.org/1999/xlink">
    <!-- Generator: Sketch 50.2 (55047) - http://www.bohemiancoding.com/sketch -->
    <title>Group</title>
    <desc>Created with Sketch.</desc>
    <defs></defs>
    <g id="Page-1" stroke="none" stroke-width="1" fill="none" fill-rule="evenodd" opacity="0.9">
        <g id="background2" transform="translate(72.500000, 119.000000) scale(-1, 1) translate(-72.500000, -119.000000) " fill-rule="nonzero">
            <g id="Page-1">
                <g id="background" transform="translate(72.500000, 119.000000) scale(-1, 1) translate(-72.500000, -119.000000) ">
                    <g id="Group">
                        <polygon id="Shape" fill-opacity="0.38" fill="#01FEFE" points="10.5498 1.335 12.2819 0.335 13.2818 2.067 11.5498 3.067"></polygon>
                        <polygon id="Shape" fill-opacity="0.38" fill="#01FEFE" points="18.7461 3.531 20.4781 2.531 21.4781 4.263 19.7461 5.263"></polygon>
                        <polygon id="Shape" fill-opacity="0.38" fill="#01FEFE" points="26.9424 5.727 28.6745 4.727 29.6745 6.459 27.9424 7.459"></polygon>
                        <polygon id="Shape" fill-opacity="0.38" fill="#01FEFE" points="35.1387 7.923 36.8708 6.923 37.8708 8.655 36.1387 9.655"></polygon>
                        <polygon id="Shape" fill-opacity="0.38" fill="#01FEFE" points="43.335 10.119 45.067 9.119 46.067 10.852 44.335 11.852"></polygon>
                        <polygon id="Shape" fill-opacity="0.38" fill="#01FEFE" points="51.5303 12.316 53.2623 11.316 54.2623 13.048 52.5303 14.048"></polygon>
                        <polygon id="Shape" fill-opacity="0.38" fill="#01FEFE" points="59.7266 14.512 61.4586 13.512 62.4586 15.244 60.7266 16.244"></polygon>
                        <polygon id="Shape" fill-opacity="0.38" fill="#01FEFE" points="0.15723 7.335 1.889279 6.335 2.889279 8.067 1.157227 9.067"></polygon>
                        <polygon id="Shape" fill-opacity="0.38" fill="#01FEFE" points="8.35352 9.531 10.08557 8.531 11.08557 10.263 9.35352 11.263"></polygon>
                        <polygon id="Shape" fill-opacity="0.38" fill="#01FEFE" points="16.5498 11.727 18.2818 10.727 19.2818 12.459 17.5498 13.459"></polygon>
                        <polygon id="Shape" fill-opacity="0.38" fill="#01FEFE" points="24.7461 13.923 26.4781 12.923 27.4781 14.655 25.7461 15.655"></polygon>
                        <polygon id="Shape" fill-opacity="0.38" fill="#01FEFE" points="32.9424 16.119 34.6745 15.119 35.6745 16.852 33.9424 17.852"></polygon>
                        <polygon id="Shape" fill-opacity="0.38" fill="#01FEFE" points="41.1387 18.316 42.8708 17.316 43.8708 19.048 42.1387 20.048"></polygon>
                        <polygon id="Shape" fill-opacity="0.38" fill="#01FEFE" points="49.335 20.512 51.067 19.512 52.067 21.244 50.335 22.244"></polygon>
                        <polygon id="Shape" fill-opacity="0.38" fill="#01FEFE" points="57.5303 22.708 59.2623 21.708 60.2623 23.44 58.5303 24.44"></polygon>
                        <polygon id="Shape" fill-opacity="0.38" fill="#01FEFE" points="6.15723 17.727 7.88928 16.727 8.88928 18.459 7.15723 19.459"></polygon>
                        <polygon id="Shape" fill-opacity="0.38" fill="#01FEFE" points="14.3535 19.923 16.0856 18.923 17.0856 20.655 15.3535 21.655"></polygon>
                        <polygon id="Shape" fill-opacity="0.38" fill="#01FEFE" points="22.5498 22.119 24.2818 21.119 25.2818 22.852 23.5498 23.852"></polygon>
                        <polygon id="Shape" fill-opacity="0.38" fill="#01FEFE" points="30.7461 24.316 32.4781 23.316 33.4781 25.048 31.7461 26.048"></polygon>
                        <polygon id="Shape" fill-opacity="0.38" fill="#01FEFE" points="38.9424 26.512 40.6745 25.512 41.6745 27.244 39.9424 28.244"></polygon>
                        <polygon id="Shape" fill-opacity="0.38" fill="#01FEFE" points="47.1387 28.708 48.8708 27.708 49.8708 29.44 48.1387 30.44"></polygon>
                        <polygon id="Shape" fill-opacity="0.38" fill="#01FEFE" points="55.335 30.904 57.067 29.904 58.067 31.636 56.335 32.636"></polygon>
                        <polygon id="Shape" fill-opacity="0.38" fill="#01FEFE" points="3.96191 25.923 5.69396 24.923 6.69396 26.655 4.96191 27.655"></polygon>
                        <polygon id="Shape" fill-opacity="0.38" fill="#01FEFE" points="12.1572 28.119 13.8893 27.119 14.8893 28.852 13.1573 29.852"></polygon>
                        <polygon id="Shape" fill-opacity="0.38" fill="#01FEFE" points="20.3535 30.316 22.0856 29.316 23.0856 31.048 21.3535 32.048"></polygon>
                        <polygon id="Shape" fill-opacity="0.38" fill="#01FEFE" points="28.5498 32.512 30.2818 31.512 31.2818 33.244 29.5498 34.244"></polygon>
                        <polygon id="Shape" fill-opacity="0.38" fill="#01FEFE" points="36.7461 34.708 38.4781 33.708 39.4781 35.44 37.7461 36.44"></polygon>
                        <polygon id="Shape" fill-opacity="0.38" fill="#01FEFE" points="44.9424 36.904 46.6745 35.904 47.6745 37.636 45.9424 38.636"></polygon>
                        <polygon id="Shape" fill-opacity="0.38" fill="#01FEFE" points="53.1387 39.1 54.8708 38.1 55.8708 39.832 54.1387 40.832"></polygon>
                        <polygon id="Shape" fill-opacity="0.38" fill="#01FEFE" points="1.765625 34.119 3.49768 33.119 4.49768 34.852 2.765625 35.852"></polygon>
                        <polygon id="Shape" fill-opacity="0.38" fill="#01FEFE" points="9.96191 36.316 11.69396 35.316 12.694 37.048 10.96191 38.048"></polygon>
                        <polygon id="Shape" fill-opacity="0.38" fill="#01FEFE" points="18.1572 38.512 19.8892 37.512 20.8892 39.244 19.1572 40.244"></polygon>
                        <polygon id="Shape" fill-opacity="0.38" fill="#01FEFE" points="26.3535 40.708 28.0856 39.708 29.0856 41.44 27.3535 42.44"></polygon>
                        <polygon id="Shape" fill-opacity="0.38" fill="#01FEFE" points="34.5498 42.904 36.2818 41.904 37.2818 43.636 35.5498 44.636"></polygon>
                        <polygon id="Shape" fill-opacity="0.38" fill="#01FEFE" points="42.7461 45.1 44.4781 44.1 45.4781 45.832 43.7461 46.832"></polygon>
                        <polygon id="Shape" fill-opacity="0.38" fill="#01FEFE" points="50.9424 47.296 52.6745 46.296 53.6745 48.029 51.9424 49.029"></polygon>
                        <polygon id="Shape" fill-opacity="0.38" fill="#01FEFE" points="7.76562 44.512 9.49767 43.512 10.49767 45.244 8.76562 46.244"></polygon>
                        <polygon id="Shape" fill-opacity="0.38" fill="#01FEFE" points="15.9609 46.708 17.693 45.708 18.693 47.44 16.9609 48.44"></polygon>
                        <polygon id="Shape" fill-opacity="0.38" fill="#01FEFE" points="24.1572 48.904 25.8892 47.904 26.8892 49.636 25.1572 50.636"></polygon>
                        <polygon id="Shape" fill-opacity="0.38" fill="#01FEFE" points="32.3535 51.1 34.0856 50.1 35.0856 51.832 33.3535 52.832"></polygon>
                        <polygon id="Shape" fill-opacity="0.38" fill="#01FEFE" points="40.5498 53.296 42.2818 52.296 43.2818 54.029 41.5498 55.029"></polygon>
                        <polygon id="Shape" fill-opacity="0.38" fill="#01FEFE" points="48.7461 55.493 50.4781 54.493 51.4781 56.225 49.7461 57.225"></polygon>
                        <polygon id="Shape" fill-opacity="0.38" fill="#01FEFE" points="5.56934 52.708 7.30139 51.708 8.30139 53.44 6.56934 54.44"></polygon>
                        <polygon id="Shape" fill-opacity="0.38" fill="#01FEFE" points="13.7646 54.904 15.4967 53.904 16.4967 55.636 14.7646 56.636"></polygon>
                        <polygon id="Shape" fill-opacity="0.38" fill="#01FEFE" points="21.9609 57.1 23.693 56.1 24.693 57.832 22.9609 58.832"></polygon>
                        <polygon id="Shape" fill-opacity="0.38" fill="#01FEFE" points="30.1572 59.296 31.8892 58.296 32.8892 60.029 31.1572 61.029"></polygon>
                        <polygon id="Shape" fill-opacity="0.38" fill="#01FEFE" points="38.3535 61.493 40.0856 60.493 41.0856 62.225 39.3535 63.225"></polygon>
                        <polygon id="Shape" fill-opacity="0.38" fill="#01FEFE" points="46.5498 63.689 48.2818 62.689 49.2818 64.421 47.5498 65.421"></polygon>
                        <polygon id="Shape" fill-opacity="0.38" fill="#01FEFE" points="3.37305 60.904 5.1051 59.904 6.1051 61.636 4.37305 62.636"></polygon>
                        <polygon id="Shape" fill-opacity="0.38" fill="#01FEFE" points="11.56934 63.1 13.3014 62.1 14.3014 63.832 12.5693 64.832"></polygon>
                        <polygon id="Shape" fill-opacity="0.38" fill="#01FEFE" points="19.7646 65.296 21.4967 64.296 22.4967 66.029 20.7646 67.029"></polygon>
                        <polygon id="Shape" fill-opacity="0.38" fill="#01FEFE" points="27.9609 67.493 29.693 66.493 30.693 68.225 28.9609 69.225"></polygon>
                        <polygon id="Shape" fill-opacity="0.38" fill="#01FEFE" points="36.1572 69.689 37.8892 68.689 38.8892 70.421 37.1572 71.421"></polygon>
                        <polygon id="Shape" fill-opacity="0.38" fill="#01FEFE" points="44.3535 71.885 46.0856 70.885 47.0856 72.617 45.3535 73.617"></polygon>
                        <polygon id="Shape" fill-opacity="0.38" fill="#01FEFE" points="1.176758 69.1 2.908807 68.1 3.90881 69.832 2.176756 70.832"></polygon>
                        <polygon id="Shape" fill-opacity="0.38" fill="#01FEFE" points="9.37305 71.296 11.1051 70.296 12.1051 72.029 10.37305 73.029"></polygon>
                        <polygon id="Shape" fill-opacity="0.38" fill="#01FEFE" points="17.5693 73.493 19.3013 72.493 20.3013 74.225 18.5693 75.225"></polygon>
                        <polygon id="Shape" fill-opacity="0.38" fill="#01FEFE" points="25.7646 75.689 27.4967 74.689 28.4967 76.421 26.7646 77.421"></polygon>
                        <polygon id="Shape" fill-opacity="0.38" fill="#01FEFE" points="33.9609 77.885 35.693 76.885 36.693 78.617 34.9609 79.617"></polygon>
                        <polygon id="Shape" fill-opacity="0.38" fill="#01FEFE" points="42.1572 80.081 43.8892 79.081 44.8892 80.813 43.1572 81.813"></polygon>
                        <polygon id="Shape" fill-opacity="0.38" fill="#01FEFE" points="7.17676 79.493 8.90881 78.493 9.90881 80.225 8.17676 81.225"></polygon>
                        <polygon id="Shape" fill-opacity="0.38" fill="#01FEFE" points="15.373 81.689 17.1051 80.689 18.1051 82.421 16.373 83.421"></polygon>
                        <polygon id="Shape" fill-opacity="0.38" fill="#01FEFE" points="23.5693 83.885 25.3013 82.885 26.3013 84.617 24.5693 85.617"></polygon>
                        <polygon id="Shape" fill-opacity="0.38" fill="#01FEFE" points="31.7646 86.081 33.4967 85.081 34.4967 86.813 32.7646 87.813"></polygon>
                        <polygon id="Shape" fill-opacity="0.38" fill="#01FEFE" points="39.9609 88.277 41.693 87.277 42.693 89.009 40.9609 90.009"></polygon>
                        <polygon id="Shape" fill-opacity="0.38" fill="#01FEFE" points="4.98047 87.689 6.71252 86.689 7.71252 88.421 5.98047 89.421"></polygon>
                        <polygon id="Shape" fill-opacity="0.38" fill="#01FEFE" points="13.1768 89.885 14.9089 88.885 15.9089 90.617 14.1768 91.617"></polygon>
                        <polygon id="Shape" fill-opacity="0.38" fill="#01FEFE" points="21.373 92.081 23.1051 91.081 24.1051 92.813 22.373 93.813"></polygon>
                        <polygon id="Shape" fill-opacity="0.38" fill="#01FEFE" points="29.5693 94.277 31.3013 93.277 32.3013 95.009 30.5693 96.009"></polygon>
                        <polygon id="Shape" fill-opacity="0.38" fill="#01FEFE" points="37.7656 96.473 39.4976 95.473 40.4976 97.205 38.7656 98.205"></polygon>
                        <polygon id="Shape" fill-opacity="0.38" fill="#01FEFE" points="2.78418 95.885 4.51623 94.885 5.51623 96.617 3.78418 97.617"></polygon>
                        <polygon id="Shape" fill-opacity="0.38" fill="#01FEFE" points="10.98047 98.081 12.7125 97.081 13.7125 98.813 11.98047 99.813"></polygon>
                        <polygon id="Shape" fill-opacity="0.38" fill="#01FEFE" points="19.1768 100.277 20.9089 99.277 21.9089 101.009 20.1768 102.009"></polygon>
                        <polygon id="Shape" fill-opacity="0.38" fill="#01FEFE" points="27.373 102.473 29.1051 101.473 30.1051 103.205 28.373 104.205"></polygon>
                        <polygon id="Shape" fill-opacity="0.38" fill="#01FEFE" points="35.5693 104.67 37.3013 103.67 38.3013 105.402 36.5693 106.402"></polygon>
                        <polygon id="Shape" fill-opacity="0.38" fill="#01FEFE" points="0.58887 104.081 2.320917 103.081 3.32092 104.813 1.588867 105.813"></polygon>
                        <polygon id="Shape" fill-opacity="0.38" fill="#01FEFE" points="8.78418 106.277 10.51623 105.277 11.51623 107.009 9.78418 108.009"></polygon>
                        <polygon id="Shape" fill-opacity="0.38" fill="#01FEFE" points="16.9805 108.473 18.7125 107.473 19.7125 109.205 17.9805 110.205"></polygon>
                        <polygon id="Shape" fill-opacity="0.38" fill="#01FEFE" points="25.1768 110.67 26.9089 109.67 27.9089 111.402 26.1768 112.402"></polygon>
                        <polygon id="Shape" fill-opacity="0.38" fill="#01FEFE" points="33.373 112.866 35.1051 111.866 36.1051 113.598 34.373 114.598"></polygon>
                        <polygon id="Shape" fill-opacity="0.38" fill="#01FEFE" points="6.58887 114.473 8.32092 113.473 9.32092 115.205 7.58887 116.205"></polygon>
                        <polygon id="Shape" fill-opacity="0.38" fill="#01FEFE" points="14.7842 116.67 16.5163 115.67 17.5163 117.402 15.7842 118.402"></polygon>
                        <polygon id="Shape" fill-opacity="0.38" fill="#01FEFE" points="22.9805 118.866 24.7125 117.866 25.7125 119.598 23.9805 120.598"></polygon>
                        <polygon id="Shape" fill-opacity="0.38" fill="#01FEFE" points="31.1768 121.062 32.9089 120.062 33.9089 121.794 32.1768 122.794"></polygon>
                        <polygon id="Shape" fill-opacity="0.38" fill="#01FEFE" points="4.39258 122.67 6.12463 121.67 7.12463 123.402 5.39258 124.402"></polygon>
                        <polygon id="Shape" fill-opacity="0.38" fill="#01FEFE" points="12.5889 124.866 14.3209 123.866 15.3209 125.598 13.5889 126.598"></polygon>
                        <polygon id="Shape" fill-opacity="0.38" fill="#01FEFE" points="20.7842 127.062 22.5163 126.062 23.5163 127.794 21.7842 128.794"></polygon>
                        <polygon id="Shape" fill-opacity="0.38" fill="#01FEFE" points="28.9805 129.258 30.7125 128.258 31.7125 129.99 29.9805 130.99"></polygon>
                        <polygon id="Shape" fill-opacity="0.38" fill="#01FEFE" points="2.196289 130.866 3.92834 129.866 4.92834 131.598 3.19629 132.598"></polygon>
                        <polygon id="Shape" fill-opacity="0.38" fill="#01FEFE" points="10.39258 133.062 12.1246 132.062 13.1246 133.794 11.39258 134.794"></polygon>
                        <polygon id="Shape" fill-opacity="0.38" fill="#01FEFE" points="18.5889 135.258 20.3209 134.258 21.3209 135.99 19.5889 136.99"></polygon>
                        <polygon id="Shape" fill-opacity="0.38" fill="#01FEFE" points="26.7842 137.454 28.5163 136.454 29.5163 138.186 27.7842 139.186"></polygon>
                        <polygon id="Shape" fill-opacity="0.38" fill="#01FEFE" points="0 139.062 1.732051 138.062 2.732051 139.794 1 140.794"></polygon>
                        <polygon id="Shape" fill-opacity="0.38" fill="#01FEFE" points="8.19629 141.258 9.92834 140.258 10.92834 141.99 9.19629 142.99"></polygon>
                        <polygon id="Shape" fill-opacity="0.38" fill="#01FEFE" points="16.3926 143.454 18.1246 142.454 19.1246 144.186 17.3926 145.186"></polygon>
                        <polygon id="Shape" fill-opacity="0.38" fill="#01FEFE" points="24.5889 145.65 26.3209 144.65 27.3209 146.382 25.5889 147.382"></polygon>
                        <polygon id="Shape" fill-opacity="0.38" fill="#01FEFE" points="6 149.454 7.73205 148.454 8.73205 150.186 7 151.186"></polygon>
                        <polygon id="Shape" fill-opacity="0.38" fill="#01FEFE" points="14.1963 151.65 15.9284 150.65 16.9284 152.382 15.1963 153.382"></polygon>
                        <polygon id="Shape" fill-opacity="0.38" fill="#01FEFE" points="22.3926 153.846 24.1246 152.846 25.1246 154.578 23.3926 155.578"></polygon>
                        <polygon id="Shape" fill-opacity="0.38" fill="#01FEFE" points="3.80371 157.65 5.53576 156.65 6.53576 158.382 4.80371 159.382"></polygon>
                        <polygon id="Shape" fill-opacity="0.38" fill="#01FEFE" points="12 159.846 13.732 158.846 14.732 160.578 13 161.578"></polygon>
                        <polygon id="Shape" fill-opacity="0.38" fill="#01FEFE" points="20.1963 162.043 21.9284 161.043 22.9284 162.775 21.1963 163.775"></polygon>
                        <polygon id="Shape" fill-opacity="0.38" fill="#01FEFE" points="1.607422 165.846 3.33947 164.846 4.33947 166.578 2.607418 167.578"></polygon>
                        <polygon id="Shape" fill-opacity="0.38" fill="#01FEFE" points="9.80371 168.043 11.53576 167.043 12.5358 168.775 10.80371 169.775"></polygon>
                        <polygon id="Shape" fill-opacity="0.38" fill="#01FEFE" points="18 170.239 19.732 169.239 20.732 170.971 19 171.971"></polygon>
                        <polygon id="Shape" fill-opacity="0.38" fill="#01FEFE" points="7.60742 176.239 9.33947 175.239 10.33947 176.971 8.60742 177.971"></polygon>
                        <polygon id="Shape" fill-opacity="0.38" fill="#01FEFE" points="15.8037 178.435 17.5357 177.435 18.5357 179.167 16.8037 180.167"></polygon>
                        <polygon id="Shape" fill-opacity="0.38" fill="#01FEFE" points="5.41113 184.435 7.14318 183.435 8.14318 185.167 6.41113 186.167"></polygon>
                        <polygon id="Shape" fill-opacity="0.38" fill="#01FEFE" points="13.6074 186.631 15.3395 185.631 16.3395 187.363 14.6074 188.363"></polygon>
                        <polygon id="Shape" fill-opacity="0.38" fill="#01FEFE" points="3.21484 192.631 4.94689 191.631 5.94689 193.363 4.21484 194.363"></polygon>
                        <polygon id="Shape" fill-opacity="0.38" fill="#01FEFE" points="11.41113 194.827 13.1432 193.827 14.1432 195.559 12.4111 196.559"></polygon>
                        <polygon id="Shape" fill-opacity="0.38" fill="#01FEFE" points="1.018555 200.827 2.750609 199.827 3.7506 201.559 2.0185578 202.559"></polygon>
                        <polygon id="Shape" fill-opacity="0.38" fill="#01FEFE" points="9.21484 203.023 10.94689 202.023 11.94689 203.755 10.21484 204.755"></polygon>
                        <polygon id="Shape" fill-opacity="0.38" fill="#01FEFE" points="7.01855 211.219 8.7506 210.219 9.7506 211.952 8.01855 212.952"></polygon>
                        <polygon id="Shape" fill-opacity="0.38" fill="#01FEFE" points="4.82324 219.416 6.55529 218.416 7.55529 220.148 5.82324 221.148"></polygon>
                        <polygon id="Shape" fill-opacity="0.38" fill="#01FEFE" points="2.626953 227.612 4.359 226.612 5.359 228.344 3.62695 229.344"></polygon>
                        <polygon id="Shape" fill-opacity="0.38" fill="#01FEFE" points="0.43066 235.808 2.162719 234.808 3.16272 236.54 1.430664 237.54"></polygon>
                        <path d="M76.1648,56.983 L77.8968,55.983 L78.8968,57.715 L77.1648,58.715 L76.1648,56.983 Z M84.3611,59.179 L86.093,58.179 L87.093,59.911 L85.3611,60.911 L84.3611,59.179 Z M94.2891,60.375 L92.5572,61.375 L93.5572,63.107 L95.2891,62.107 L94.2891,60.375 Z M100.7534,63.571 L102.485,62.571 L103.485,64.303 L101.7534,65.303 L100.7534,63.571 Z M110.681,64.768 L108.949,65.768 L109.949,67.5 L111.681,66.5 L110.681,64.768 Z M117.145,67.964 L118.877,66.964 L119.877,68.696 L118.145,69.696 L117.145,67.964 Z M127.074,69.16 L125.342,70.16 L126.342,71.892 L128.074,70.892 L127.074,69.16 Z M133.538,72.356 L135.27,71.356 L136.27,73.088 L134.538,74.088 L133.538,72.356 Z M143.466,73.552 L141.734,74.552 L142.734,76.284 L144.466,75.284 L143.466,73.552 Z M73.9688,65.179 L75.7007,64.179 L76.7007,65.911 L74.9688,66.911 L73.9688,65.179 Z M83.8968,66.375 L82.1648,67.375 L83.1648,69.107 L84.8968,68.107 L83.8968,66.375 Z M90.3611,69.571 L92.093,68.571 L93.093,70.303 L91.3611,71.303 L90.3611,69.571 Z M100.2891,70.768 L98.5572,71.768 L99.5572,73.5 L101.2891,72.5 L100.2891,70.768 Z M106.753,73.964 L108.485,72.964 L109.485,74.696 L107.753,75.696 L106.753,73.964 Z M116.681,75.16 L114.949,76.16 L115.949,77.892 L117.681,76.892 L116.681,75.16 Z M123.145,78.356 L124.877,77.356 L125.877,79.088 L124.145,80.088 L123.145,78.356 Z M133.074,79.552 L131.342,80.552 L132.342,82.284 L134.074,81.284 L133.074,79.552 Z M139.538,82.748 L141.27,81.748 L142.27,83.48 L140.538,84.48 L139.538,82.748 Z M73.5044,72.375 L71.7725,73.375 L72.7725,75.107 L74.5044,74.107 L73.5044,72.375 Z M79.9688,75.571 L81.7007,74.571 L82.7007,76.303 L80.9688,77.303 L79.9688,75.571 Z M89.8968,76.768 L88.1648,77.768 L89.1648,79.5 L90.8968,78.5 L89.8968,76.768 Z M96.3611,79.964 L98.093,78.964 L99.093,80.696 L97.3611,81.696 L96.3611,79.964 Z M106.289,81.16 L104.557,82.16 L105.557,83.892 L107.289,82.892 L106.289,81.16 Z M112.753,84.356 L114.485,83.356 L115.485,85.088 L113.753,86.088 L112.753,84.356 Z M122.681,85.552 L120.949,86.552 L121.949,88.284 L123.681,87.284 L122.681,85.552 Z M129.145,88.748 L130.877,87.748 L131.877,89.48 L130.145,90.48 L129.145,88.748 Z M139.074,89.944 L137.342,90.944 L138.342,92.676 L140.074,91.676 L139.074,89.944 Z M69.5764,81.571 L71.3084,80.571 L72.3084,82.303 L70.5764,83.303 L69.5764,81.571 Z M79.5044,82.768 L77.7725,83.768 L78.7725,85.5 L80.5044,84.5 L79.5044,82.768 Z M85.9688,85.964 L87.7007,84.964 L88.7007,86.696 L86.9688,87.696 L85.9688,85.964 Z M95.8968,87.16 L94.1648,88.16 L95.1648,89.892 L96.8968,88.892 L95.8968,87.16 Z M102.361,90.356 L104.093,89.356 L105.093,91.088 L103.361,92.088 L102.361,90.356 Z M112.289,91.552 L110.557,92.552 L111.557,94.284 L113.289,93.284 L112.289,91.552 Z M118.753,94.748 L120.485,93.748 L121.485,95.48 L119.753,96.48 L118.753,94.748 Z M128.681,95.944 L126.949,96.944 L127.949,98.676 L129.681,97.676 L128.681,95.944 Z M135.145,99.141 L136.877,98.141 L137.877,99.873 L136.145,100.873 L135.145,99.141 Z M69.1121,88.768 L67.3801,89.768 L68.3801,91.5 L70.1121,90.5 L69.1121,88.768 Z M75.5764,91.964 L77.3084,90.964 L78.3084,92.696 L76.5764,93.696 L75.5764,91.964 Z M85.5044,93.16 L83.7725,94.16 L84.7725,95.892 L86.5044,94.892 L85.5044,93.16 Z M91.9688,96.356 L93.7007,95.356 L94.7007,97.088 L92.9688,98.088 L91.9688,96.356 Z M101.8968,97.552 L100.1648,98.552 L101.1648,100.284 L102.897,99.284 L101.8968,97.552 Z M108.361,100.748 L110.093,99.748 L111.093,101.48 L109.361,102.48 L108.361,100.748 Z M118.289,101.944 L116.557,102.944 L117.557,104.676 L119.289,103.676 L118.289,101.944 Z M124.753,105.141 L126.485,104.141 L127.485,105.873 L125.753,106.873 L124.753,105.141 Z M134.681,106.337 L132.949,107.337 L133.949,109.069 L135.681,108.069 L134.681,106.337 Z M65.1841,97.964 L66.916,96.964 L67.916,98.696 L66.1841,99.696 L65.1841,97.964 Z M75.1121,99.16 L73.3801,100.16 L74.3801,101.892 L76.1121,100.892 L75.1121,99.16 Z M81.5764,102.356 L83.3084,101.356 L84.3084,103.088 L82.5764,104.088 L81.5764,102.356 Z M91.5044,103.552 L89.7725,104.552 L90.7725,106.284 L92.5044,105.284 L91.5044,103.552 Z M97.9688,106.748 L99.7007,105.748 L100.7007,107.48 L98.9688,108.48 L97.9688,106.748 Z M107.897,107.944 L106.165,108.944 L107.165,110.676 L108.897,109.676 L107.897,107.944 Z M114.361,111.141 L116.093,110.141 L117.093,111.873 L115.361,112.873 L114.361,111.141 Z M124.289,112.337 L122.557,113.337 L123.557,115.069 L125.289,114.069 L124.289,112.337 Z M130.753,115.533 L132.485,114.533 L133.485,116.265 L131.753,117.265 L130.753,115.533 Z M64.72,105.16 L62.9881,106.16 L63.9881,107.892 L65.72,106.892 L64.72,105.16 Z M71.1841,108.356 L72.916,107.356 L73.916,109.088 L72.1841,110.088 L71.1841,108.356 Z M81.1121,109.552 L79.3801,110.552 L80.3801,112.284 L82.1121,111.284 L81.1121,109.552 Z M87.5764,112.748 L89.3084,111.748 L90.3084,113.48 L88.5764,114.48 L87.5764,112.748 Z M97.5044,113.944 L95.7725,114.944 L96.7725,116.676 L98.5044,115.676 L97.5044,113.944 Z M103.969,117.141 L105.701,116.141 L106.701,117.873 L104.969,118.873 L103.969,117.141 Z M113.897,118.337 L112.165,119.337 L113.165,121.069 L114.897,120.069 L113.897,118.337 Z M120.361,121.533 L122.093,120.533 L123.093,122.265 L121.361,123.265 L120.361,121.533 Z M130.289,122.729 L128.557,123.729 L129.557,125.461 L131.289,124.461 L130.289,122.729 Z M60.7918,114.356 L62.5237,113.356 L63.5237,115.088 L61.7918,116.088 L60.7918,114.356 Z M70.72,115.552 L68.9881,116.552 L69.9881,118.284 L71.72,117.284 L70.72,115.552 Z M77.1841,118.748 L78.916,117.748 L79.916,119.48 L78.1841,120.48 L77.1841,118.748 Z M87.1121,119.944 L85.3801,120.944 L86.3802,122.676 L88.1121,121.676 L87.1121,119.944 Z M93.5764,123.141 L95.3084,122.141 L96.3084,123.873 L94.5764,124.873 L93.5764,123.141 Z M103.504,124.337 L101.7725,125.337 L102.772,127.069 L104.504,126.069 L103.504,124.337 Z M109.969,127.533 L111.701,126.533 L112.701,128.265 L110.969,129.265 L109.969,127.533 Z M119.897,128.729 L118.165,129.729 L119.165,131.461 L120.897,130.461 L119.897,128.729 Z M126.361,131.925 L128.093,130.925 L129.093,132.657 L127.361,133.657 L126.361,131.925 Z M60.3277,121.552 L58.5957,122.552 L59.5957,124.284 L61.3277,123.284 L60.3277,121.552 Z M66.7918,124.748 L68.5237,123.748 L69.5237,125.48 L67.7918,126.48 L66.7918,124.748 Z M76.72,125.944 L74.9881,126.944 L75.9881,128.676 L77.72,127.676 L76.72,125.944 Z M83.1841,129.141 L84.916,128.141 L85.916,129.873 L84.1841,130.873 L83.1841,129.141 Z M93.1121,130.337 L91.3801,131.337 L92.3801,133.069 L94.1121,132.069 L93.1121,130.337 Z M99.5764,133.533 L101.3084,132.533 L102.308,134.265 L100.5764,135.265 L99.5764,133.533 Z M109.504,134.729 L107.772,135.729 L108.772,137.461 L110.504,136.461 L109.504,134.729 Z M115.969,137.925 L117.701,136.925 L118.701,138.657 L116.969,139.657 L115.969,137.925 Z M125.897,139.121 L124.165,140.121 L125.165,141.853 L126.897,140.853 L125.897,139.121 Z" id="Shape" fill="#535194"></path>
                    </g>
                </g>
            </g>
        </g>
    </g>
</svg>