<svg width="28" height="28" viewBox="0 0 28 28" fill="none" xmlns="http://www.w3.org/2000/svg">
<path d="M4.85896 0.79782L4.85897 0.797867L4.86571 0.796182C5.43219 0.654562 6.41439 0.577508 7.29442 0.538396C7.72614 0.519208 8.11998 0.509597 8.40597 0.50479C8.54886 0.502389 8.66458 0.501191 8.74433 0.500594L8.83582 0.500073L8.85924 0.500009L8.865 0.500001L8.86635 0.5L8.86664 0.5H8.86667H8.86669H19.2111H19.2111L19.2114 0.5L19.2128 0.500001L19.2185 0.500009L19.242 0.500073L19.3335 0.500594C19.4132 0.501191 19.5289 0.502389 19.6718 0.50479C19.9578 0.509597 20.3516 0.519208 20.7834 0.538396C21.6634 0.577508 22.6456 0.654562 23.2121 0.796182C24.3601 1.0832 25.2152 1.65563 25.7798 2.22022C26.3512 2.79165 26.9167 3.56806 27.2022 4.78119C27.3456 5.39074 27.4226 6.39674 27.4616 7.28446C27.4808 7.72115 27.4904 8.1175 27.4952 8.40472C27.4976 8.54824 27.4988 8.66426 27.4994 8.74417L27.4999 8.8358L27.5 8.85924L27.5 8.865L27.5 8.86635V8.86664V8.86667V19.1333V19.1334V19.1337L27.5 19.1351L27.5 19.141L27.4999 19.1651L27.4994 19.2591C27.4988 19.341 27.4976 19.4598 27.4952 19.6064C27.4904 19.8998 27.4808 20.3034 27.4616 20.7449C27.4224 21.6453 27.3453 22.6462 27.2038 23.2121C26.9168 24.3601 26.3444 25.2152 25.7798 25.7798C25.2083 26.3512 24.4319 26.9167 23.2188 27.2022L23.2188 27.2021L23.2121 27.2038C22.6456 27.3454 21.6634 27.4225 20.7834 27.4616C20.3516 27.4808 19.9578 27.4904 19.6718 27.4952C19.5289 27.4976 19.4132 27.4988 19.3335 27.4994L19.242 27.4999L19.2185 27.5L19.2128 27.5L19.2114 27.5H19.2111H19.2111H8.86668H8.86664H8.86633L8.86494 27.5L8.85899 27.5L8.8349 27.4999L8.74089 27.4994C8.65898 27.4988 8.54019 27.4976 8.39361 27.4952C8.10024 27.4904 7.6966 27.4808 7.25505 27.4616C6.3547 27.4224 5.35385 27.3453 4.78793 27.2038C3.63985 26.9168 2.78481 26.3444 2.22022 25.7798C1.64879 25.2083 1.08326 24.4319 0.79782 23.2188L0.797867 23.2188L0.796182 23.2121C0.654562 22.6456 0.577508 21.6634 0.538396 20.7834C0.519208 20.3516 0.509597 19.9578 0.50479 19.6718C0.502389 19.5289 0.501191 19.4132 0.500594 19.3335L0.500073 19.242L0.500009 19.2185L0.500001 19.2128L0.5 19.2114L0.5 19.2111V19.2111V8.8667V8.86666L0.5 8.86639L0.500001 8.86504L0.500011 8.8592L0.50009 8.83533L0.500739 8.7418C0.501483 8.66022 0.502976 8.54182 0.505971 8.39566C0.511967 8.10308 0.523954 7.7006 0.547874 7.26047C0.596849 6.35933 0.693 5.36982 0.866129 4.8158L0.870448 4.80198L0.87396 4.78793C1.16098 3.63985 1.73341 2.78481 2.298 2.22022C2.86943 1.64879 3.64584 1.08326 4.85896 0.79782ZM6.65556 18.5889C6.65556 20.1095 7.89052 21.3444 9.41111 21.3444C10.8963 21.3444 12.255 20.1389 12.1666 18.5734C12.1582 17.0599 10.9265 15.8333 9.41111 15.8333C7.89052 15.8333 6.65556 17.0683 6.65556 18.5889ZM6.65556 9.48889C6.65556 11.0095 7.89052 12.2444 9.41111 12.2444C10.8963 12.2444 12.255 11.0389 12.1666 9.47335C12.1582 7.9599 10.9265 6.73333 9.41111 6.73333C7.89052 6.73333 6.65556 7.9683 6.65556 9.48889ZM15.8333 18.5889C15.8333 20.1095 17.0683 21.3444 18.5889 21.3444C20.1095 21.3444 21.3444 20.1095 21.3444 18.5889C21.3444 17.0683 20.1095 15.8333 18.5889 15.8333C17.0683 15.8333 15.8333 17.0683 15.8333 18.5889ZM15.8333 9.48889C15.8333 11.0095 17.0683 12.2444 18.5889 12.2444C20.1095 12.2444 21.3444 11.0095 21.3444 9.48889C21.3444 7.9683 20.1095 6.73333 18.5889 6.73333C17.0683 6.73333 15.8333 7.9683 15.8333 9.48889Z" stroke="#7F7DBC"/>
</svg>
