<?xml version="1.0" encoding="UTF-8"?>
<svg width="74px" height="74px" viewBox="0 0 74 74" version="1.1" xmlns="http://www.w3.org/2000/svg" xmlns:xlink="http://www.w3.org/1999/xlink">
    <!-- Generator: Sketch 50.2 (55047) - http://www.bohemiancoding.com/sketch -->
    <title>Shape</title>
    <desc>Created with Sketch.</desc>
    <defs></defs>
    <g id="Page-1" stroke="none" stroke-width="1" fill="none" fill-rule="evenodd">
        <g id="noun_Search_875351" transform="translate(-15.000000, 0.000000)" fill="rgba(255,255,255,0.8)" fill-rule="nonzero">
            <path d="M87,66.3 L69.1,48.4 C78.1,36.7 77.2,19.8 66.4,9.1 C60.5,3.2 52.9,0.3 45.2,0.3 C37.5,0.3 29.9,3.2 24,9.1 C12.3,20.8 12.3,39.8 24,51.5 C29.9,57.4 37.5,60.3 45.2,60.3 C51.6,60.3 58,58.3 63.3,54.2 L81.3,72 C82.1,72.8 83.1,73.2 84.2,73.2 C85.2,73.2 86.3,72.8 87.1,72 C88.6,70.5 88.6,67.9 87,66.3 Z M45.3,52.2 C39.4,52.2 34,49.9 29.8,45.8 C21.3,37.3 21.3,23.4 29.8,14.8 C33.9,10.7 39.4,8.4 45.3,8.4 C51.2,8.4 56.6,10.7 60.8,14.8 C65,18.9 67.2,24.4 67.2,30.3 C67.2,36.2 64.9,41.6 60.8,45.8 C56.7,50 51.1,52.2 45.3,52.2 Z" id="Shape"></path>
        </g>
    </g>
</svg>